HIERARCHY
ROOT Root
{
  OFFSET 0.0 0.0 0.0
  CHANNELS 6 Xposition Yposition Zposition Zrotation Yrotation Xrotation
  JOINT Hips
  {
    OFFSET 0.0 100.0 0.0
    CHANNELS 6 Xposition Yposition Zposition Zrotation Yrotation Xrotation
    JOINT Spine1
    {
      OFFSET 5.003913 -0.037094 -0.013727
      CHANNELS 3 Zrotation Yrotation Xrotation
      JOINT Spine2
      {
        OFFSET 7.125363 -1e-06 0.0
        CHANNELS 3 Zrotation Yrotation Xrotation
        JOINT Chest
        {
          OFFSET 7.594027 1e-06 0.0
          CHANNELS 3 Zrotation Yrotation Xrotation
          JOINT Neck1
          {
            OFFSET 26.313086 -0.460272 -0.181672
            CHANNELS 3 Zrotation Yrotation Xrotation
            JOINT Neck2
            {
              OFFSET 8.045911 0.0 0.0
              CHANNELS 3 Zrotation Yrotation Xrotation
              JOINT Head
              {
                OFFSET 6.432774 0.0 0.0
                CHANNELS 3 Zrotation Yrotation Xrotation
                JOINT HeadEnd
                {
                  OFFSET 16.169773 0.06451 0.00362
                  CHANNELS 3 Zrotation Yrotation Xrotation
                }
                JOINT Jaw
                {
                  OFFSET 0.108741 3.12938 0.002639
                  CHANNELS 3 Zrotation Yrotation Xrotation
                }
                JOINT LeftEye
                {
                  OFFSET 4.45173 8.166359 3.206392
                  CHANNELS 3 Zrotation Yrotation Xrotation
                }
                JOINT RightEye
                {
                  OFFSET 4.436895 8.135758 -3.222429
                  CHANNELS 3 Zrotation Yrotation Xrotation
                }
              }
            }
          }
          JOINT LeftShoulder
          {
            OFFSET 23.218927 5.195579 1.621656
            CHANNELS 3 Zrotation Yrotation Xrotation
            JOINT LeftArm
            {
              OFFSET 15.902118 2e-06 -2e-06
              CHANNELS 3 Zrotation Yrotation Xrotation
              JOINT LeftForeArm
              {
                OFFSET 28.739307 0.0 -1e-06
                CHANNELS 3 Zrotation Yrotation Xrotation
                JOINT LeftHand
                {
                  OFFSET 27.093981 -4e-06 0.0
                  CHANNELS 3 Zrotation Yrotation Xrotation
                  JOINT LeftHandThumb1
                  {
                    OFFSET 2.276781 3.380274 0.83384
                    CHANNELS 3 Zrotation Yrotation Xrotation
                    JOINT LeftHandThumb2
                    {
                      OFFSET 4.705309 -1e-06 -1e-06
                      CHANNELS 3 Zrotation Yrotation Xrotation
                      JOINT LeftHandThumb3
                      {
                        OFFSET 2.798515 0.0 3e-06
                        CHANNELS 3 Zrotation Yrotation Xrotation
                        JOINT LeftHandThumbEnd
                        {
                          OFFSET 3.180793 4e-06 -4e-06
                          CHANNELS 3 Zrotation Yrotation Xrotation
                        }
                      }
                    }
                  }
                  JOINT LeftHandIndex1
                  {
                    OFFSET 3.247786 2.352677 0.137192
                    CHANNELS 3 Zrotation Yrotation Xrotation
                    JOINT LeftHandIndex2
                    {
                      OFFSET 6.367095 1e-06 0.0
                      CHANNELS 3 Zrotation Yrotation Xrotation
                      JOINT LeftHandIndex3
                      {
                        OFFSET 3.662364 0.0 0.0
                        CHANNELS 3 Zrotation Yrotation Xrotation
                        JOINT LeftHandIndex4
                        {
                          OFFSET 2.329242 4e-06 -4e-06
                          CHANNELS 3 Zrotation Yrotation Xrotation
                          JOINT LeftHandIndexEnd
                          {
                            OFFSET 2.767823 1e-06 0.0
                            CHANNELS 3 Zrotation Yrotation Xrotation
                          }
                        }
                      }
                    }
                  }
                  JOINT LeftHandMiddle1
                  {
                    OFFSET 3.163612 0.945023 -0.406112
                    CHANNELS 3 Zrotation Yrotation Xrotation
                    JOINT LeftHandMiddle2
                    {
                      OFFSET 6.276789 3e-06 0.0
                      CHANNELS 3 Zrotation Yrotation Xrotation
                      JOINT LeftHandMiddle3
                      {
                        OFFSET 4.35652 -1e-06 4e-06
                        CHANNELS 3 Zrotation Yrotation Xrotation
                        JOINT LeftHandMiddle4
                        {
                          OFFSET 2.996877 0.0 8e-06
                          CHANNELS 3 Zrotation Yrotation Xrotation
                          JOINT LeftHandMiddleEnd
                          {
                            OFFSET 2.323256 3e-06 -4e-06
                            CHANNELS 3 Zrotation Yrotation Xrotation
                          }
                        }
                      }
                    }
                  }
                  JOINT LeftHandRing1
                  {
                    OFFSET 2.882606 -0.309162 0.107445
                    CHANNELS 3 Zrotation Yrotation Xrotation
                    JOINT LeftHandRing2
                    {
                      OFFSET 6.033198 0.0 4e-06
                      CHANNELS 3 Zrotation Yrotation Xrotation
                      JOINT LeftHandRing3
                      {
                        OFFSET 4.350578 3e-06 0.0
                        CHANNELS 3 Zrotation Yrotation Xrotation
                        JOINT LeftHandRing4
                        {
                          OFFSET 2.651321 2e-06 -7e-06
                          CHANNELS 3 Zrotation Yrotation Xrotation
                          JOINT LeftHandRingEnd
                          {
                            OFFSET 1.937663 1e-06 -4e-06
                            CHANNELS 3 Zrotation Yrotation Xrotation
                          }
                        }
                      }
                    }
                  }
                  JOINT LeftHandPinky1
                  {
                    OFFSET 2.865315 -1.525436 0.575687
                    CHANNELS 3 Zrotation Yrotation Xrotation
                    JOINT LeftHandPinky2
                    {
                      OFFSET 5.54936 1e-06 -8e-06
                      CHANNELS 3 Zrotation Yrotation Xrotation
                      JOINT LeftHandPinky3
                      {
                        OFFSET 3.070974 0.0 -4e-06
                        CHANNELS 3 Zrotation Yrotation Xrotation
                        JOINT LeftHandPinky4
                        {
                          OFFSET 1.549672 1e-06 0.0
                          CHANNELS 3 Zrotation Yrotation Xrotation
                          JOINT LeftHandPinkyEnd
                          {
                            OFFSET 1.952123 0.0 0.0
                            CHANNELS 3 Zrotation Yrotation Xrotation
                          }
                        }
                      }
                    }
                  }
                }
              }
            }
          }
          JOINT RightShoulder
          {
            OFFSET 23.161716 5.296122 -1.380114
            CHANNELS 3 Zrotation Yrotation Xrotation
            JOINT RightArm
            {
              OFFSET -16.027195 -2e-06 1.1e-05
              CHANNELS 3 Zrotation Yrotation Xrotation
              JOINT RightForeArm
              {
                OFFSET -28.736639 4e-06 2e-06
                CHANNELS 3 Zrotation Yrotation Xrotation
                JOINT RightHand
                {
                  OFFSET -27.133619 6e-06 0.0
                  CHANNELS 3 Zrotation Yrotation Xrotation
                  JOINT RightHandThumb1
                  {
                    OFFSET -2.274328 -3.351035 -0.83067
                    CHANNELS 3 Zrotation Yrotation Xrotation
                    JOINT RightHandThumb2
                    {
                      OFFSET -4.703594 -3e-06 2e-06
                      CHANNELS 3 Zrotation Yrotation Xrotation
                      JOINT RightHandThumb3
                      {
                        OFFSET -2.794935 -4e-06 -3e-06
                        CHANNELS 3 Zrotation Yrotation Xrotation
                        JOINT RightHandThumbEnd
                        {
                          OFFSET -3.183852 4e-06 1e-06
                          CHANNELS 3 Zrotation Yrotation Xrotation
                        }
                      }
                    }
                  }
                  JOINT RightHandIndex1
                  {
                    OFFSET -3.253496 -2.33755 -0.127667
                    CHANNELS 3 Zrotation Yrotation Xrotation
                    JOINT RightHandIndex2
                    {
                      OFFSET -6.344434 0.0 0.0
                      CHANNELS 3 Zrotation Yrotation Xrotation
                      JOINT RightHandIndex3
                      {
                        OFFSET -3.654871 0.0 -8e-06
                        CHANNELS 3 Zrotation Yrotation Xrotation
                        JOINT RightHandIndex4
                        {
                          OFFSET -2.327586 -1e-06 0.0
                          CHANNELS 3 Zrotation Yrotation Xrotation
                          JOINT RightHandIndexEnd
                          {
                            OFFSET -2.770001 3e-06 8e-06
                            CHANNELS 3 Zrotation Yrotation Xrotation
                          }
                        }
                      }
                    }
                  }
                  JOINT RightHandMiddle1
                  {
                    OFFSET -3.168223 -0.944764 0.411762
                    CHANNELS 3 Zrotation Yrotation Xrotation
                    JOINT RightHandMiddle2
                    {
                      OFFSET -6.266691 -1e-06 -4e-06
                      CHANNELS 3 Zrotation Yrotation Xrotation
                      JOINT RightHandMiddle3
                      {
                        OFFSET -4.348901 0.0 0.0
                        CHANNELS 3 Zrotation Yrotation Xrotation
                        JOINT RightHandMiddle4
                        {
                          OFFSET -3.00024 2e-06 -4e-06
                          CHANNELS 3 Zrotation Yrotation Xrotation
                          JOINT RightHandMiddleEnd
                          {
                            OFFSET -2.321477 -4e-06 -4e-06
                            CHANNELS 3 Zrotation Yrotation Xrotation
                          }
                        }
                      }
                    }
                  }
                  JOINT RightHandRing1
                  {
                    OFFSET -2.885654 0.293261 -0.119232
                    CHANNELS 3 Zrotation Yrotation Xrotation
                    JOINT RightHandRing2
                    {
                      OFFSET -6.032835 -1e-06 -4e-06
                      CHANNELS 3 Zrotation Yrotation Xrotation
                      JOINT RightHandRing3
                      {
                        OFFSET -4.33881 0.0 -4e-06
                        CHANNELS 3 Zrotation Yrotation Xrotation
                        JOINT RightHandRing4
                        {
                          OFFSET -2.654903 -4e-06 -4e-06
                          CHANNELS 3 Zrotation Yrotation Xrotation
                          JOINT RightHandRingEnd
                          {
                            OFFSET -1.935122 0.0 4e-06
                            CHANNELS 3 Zrotation Yrotation Xrotation
                          }
                        }
                      }
                    }
                  }
                  JOINT RightHandPinky1
                  {
                    OFFSET -2.866241 1.503904 -0.60527
                    CHANNELS 3 Zrotation Yrotation Xrotation
                    JOINT RightHandPinky2
                    {
                      OFFSET -5.553177 -2e-06 0.0
                      CHANNELS 3 Zrotation Yrotation Xrotation
                      JOINT RightHandPinky3
                      {
                        OFFSET -3.062664 -1e-06 -4e-06
                        CHANNELS 3 Zrotation Yrotation Xrotation
                        JOINT RightHandPinky4
                        {
                          OFFSET -1.546529 2e-06 4e-06
                          CHANNELS 3 Zrotation Yrotation Xrotation
                          JOINT RightHandPinkyEnd
                          {
                            OFFSET -1.952341 0.0 -4e-06
                            CHANNELS 3 Zrotation Yrotation Xrotation
                          }
                        }
                      }
                    }
                  }
                }
              }
            }
          }
        }
      }
    }
    JOINT LeftLeg
    {
      OFFSET -8.443107 2.567604 10.043214
      CHANNELS 3 Zrotation Yrotation Xrotation
      JOINT LeftShin
      {
        OFFSET 43.229198 1e-06 -1e-06
        CHANNELS 3 Zrotation Yrotation Xrotation
        JOINT LeftFoot
        {
          OFFSET 42.298611 1e-06 1e-06
          CHANNELS 3 Zrotation Yrotation Xrotation
          JOINT LeftToeBase
          {
            OFFSET 14.165858 1e-06 0.0
            CHANNELS 3 Zrotation Yrotation Xrotation
            JOINT LeftToeEnd
            {
              OFFSET 6.7141 -0.234461 0.0
              CHANNELS 3 Zrotation Yrotation Xrotation
            }
          }
        }
      }
    }
    JOINT RightLeg
    {
      OFFSET -8.303923 2.592729 -10.047278
      CHANNELS 3 Zrotation Yrotation Xrotation
      JOINT RightShin
      {
        OFFSET -43.369682 0.0 1e-06
        CHANNELS 3 Zrotation Yrotation Xrotation
        JOINT RightFoot
        {
          OFFSET -42.260784 4e-06 2e-06
          CHANNELS 3 Zrotation Yrotation Xrotation
          JOINT RightToeBase
          {
            OFFSET -14.222245 -2e-06 -1e-06
            CHANNELS 3 Zrotation Yrotation Xrotation
            JOINT RightToeEnd
            {
              OFFSET -6.660062 0.232574 -2e-06
              CHANNELS 3 Zrotation Yrotation Xrotation
            }
          }
        }
      }
    }
  }
}
MOTION
Frames: 4
Frame Time: 0.03333333333333333
0.0 0.0 0.0 0.0 -0.0 0.0 5.622555 12.019205 119.151711 -50.620094 -82.334663 -97.944992 -4.757432 -4.388266 -2.759061 -12.63695 -2.122352 -3.965403 13.299315 -3.304351 -5.90225 32.422894 5.081535 1.718124 -1.886936 3.289186 -2.500771 -10.568283 -0.799576 -5.21474 4e-06 0.0 0.0 -0.341983 0.42071 0.095453 -0.265106 0.825473 0.056593 -0.001934 -0.000557 0.140297 -34.995792 -82.520866 46.031303 40.241356 -37.432381 -64.399918 134.90358 0.642794 -0.169156 1.000511 34.583794 18.049864 17.636618 -26.322721 52.411182 -19.466654 -14.395598 29.410378 0.0 -8.774819 -2e-06 15.06782 -18.779423 7.12041 -0.609775 -1.795654 -3.889326 -4.807088 -11.046807 -2.93785 6e-06 -20.976011 -2e-06 -5.01997 -25.033548 -4.031879 7e-06 -1e-06 -1e-06 -10.634531 -5.686968 -3.565585 10.573275 -17.922945 -3.113903 4e-06 -13.821203 3e-06 -0.501775 -31.181498 -4.027014 -13.438661 -59.348164 9.067303 -13.982711 -7.150197 -2.875041 13.772727 -8.401489 -3.218242 0.347735 -34.211544 0.771653 -0.963028 -17.733362 2.621018 -1e-06 0.0 -1e-06 -17.346413 -20.095211 -4.20178 21.757555 -1.638374 3.866426 1e-06 -6.338822 1e-06 -1.697589 -22.59174 -6.194002 -1e-06 -7e-06 -2e-06 111.862495 -67.055992 84.928116 22.680105 -69.55233 -48.77322 163.256989 2.289561 -0.641897 4.070241 18.478268 51.296711 22.182121 -20.375891 49.933308 -16.701811 -16.743526 28.476519 -3e-06 -12.690598 -1e-06 16.141714 -17.02247 2.938604 -0.105919 -1.513855 -4.275881 -5.039041 -5.612869 -2.953556 5e-06 -11.020519 -1e-06 -6.111295 -15.89533 -3.840471 -1e-06 -0.0 0.0 -10.283369 -5.680285 -4.341838 11.028292 -11.302401 -2.372629 -1.384266 -14.238574 -6.32012 -0.625437 -26.924179 -3.827599 -3.687757 -49.253159 -4.509797 -13.708524 -7.363472 -3.720939 18.141148 -14.052735 -3.242672 8e-06 -18.787258 1e-06 -0.429711 -8.456045 2.555504 -1e-06 0.0 0.0 -15.923532 -20.094475 -5.473586 30.41921 -7.190829 1.735927 3e-06 -8.162921 -0.0 -1.861902 -22.861462 -6.167939 -1e-06 -3e-06 0.0 125.865303 -26.328283 -26.734266 57.92997 -9.047817 11.560725 -58.804016 -3.489448 -5.101098 -8.847802 1.923678 2.974638 -1.0 0.0 0.0 -2.095484 -11.637233 79.768723 13.115954 11.781246 -54.310818 -49.616722 1.143652 -32.320671 -8.137036 0.618679 0.923182 -1.000008 1e-06 1e-06 
0.0 0.0 0.0 0.0 -0.0 0.0 5.639979 11.995697 119.162537 -50.596603 -82.305069 -98.013718 -4.770357 -4.345664 -2.771256 -12.663372 -2.095977 -3.958293 13.299021 -3.314916 -5.859752 32.469513 4.944857 1.66362 -1.878252 3.322418 -2.495889 -10.583347 -0.702333 -5.060242 5e-06 -0.0 1e-06 -0.347505 0.391219 0.081318 -0.263201 0.785461 0.052723 -0.000614 -0.018728 0.116282 -35.3922 -82.504013 46.493748 40.172211 -37.378799 -64.260475 134.96344 0.676282 -0.191777 1.077171 34.720936 18.441261 17.636621 -26.322725 52.411194 -19.466663 -14.3956 29.410393 1e-06 -8.774821 -1e-06 15.058486 -18.80364 7.164872 -0.609776 -1.795653 -3.889327 -4.807088 -11.046808 -2.937848 3e-06 -20.976011 -2e-06 -5.019969 -25.033546 -4.031884 6e-06 -1e-06 1e-06 -10.634533 -5.68697 -3.565584 10.573272 -17.922947 -3.113904 2e-06 -13.821206 1e-06 -0.501777 -31.181501 -4.027016 -13.448247 -59.403965 9.082582 -13.982714 -7.150197 -2.875042 13.772728 -8.401489 -3.21824 0.347731 -34.21154 0.771655 -0.96303 -17.733364 2.621019 -0.0 0.0 -1e-06 -17.346416 -20.095211 -4.20178 21.757557 -1.638373 3.866425 1e-06 -6.338823 0.0 -1.69759 -22.591742 -6.194004 -1e-06 -6e-06 -4e-06 112.323677 -67.022919 84.56115 22.85647 -69.643112 -48.897957 163.339157 2.261551 -0.61149 4.068621 18.518852 51.422146 22.182114 -20.375895 49.933319 -16.701815 -16.743526 28.476532 -3e-06 -12.690597 -0.0 16.238558 -17.045208 2.908129 -0.105919 -1.513858 -4.27588 -5.039038 -5.612868 -2.953556 5e-06 -11.020523 -2e-06 -6.111294 -15.89533 -3.84047 1e-06 -0.0 -0.0 -10.283365 -5.680286 -4.341839 11.028293 -11.302404 -2.372633 -1.384264 -14.238575 -6.320121 -0.625434 -26.924185 -3.827601 -3.699852 -49.337688 -4.497921 -13.708521 -7.363474 -3.720939 18.141146 -14.052738 -3.242676 9e-06 -18.787262 -0.0 -0.429712 -8.45604 2.555504 -1e-06 -1e-06 -0.0 -15.923528 -20.094479 -5.473586 30.419205 -7.19083 1.735924 1e-06 -8.162921 -1e-06 -1.861902 -22.861464 -6.167939 -1e-06 -4e-06 -1e-06 125.865456 -26.357103 -26.765184 57.932655 -9.080667 11.610263 -58.88488 -3.54977 -5.002884 -8.91045 1.923448 2.959468 -1.0 -1e-06 -0.0 -2.073488 -11.666098 79.799782 13.012872 11.699286 -54.365616 -49.55336 1.151277 -32.406067 -8.056525 0.630884 0.932612 -1.000004 1e-06 0.0 
0.0 0.0 0.0 0.0 -0.0 0.0 5.63307 11.988515 119.191132 -50.717571 -82.27005 -97.933899 -4.790766 -4.299326 -2.774225 -12.689967 -2.085581 -3.962174 13.308958 -3.337078 -5.810108 32.456436 4.813498 1.616103 -1.867559 3.364072 -2.482817 -10.619022 -0.628461 -4.976164 6e-06 0.0 0.0 -0.352629 0.366227 0.069114 -0.262477 0.753283 0.049299 -0.000322 -0.035537 0.096179 -35.730896 -82.488998 46.866001 40.128036 -37.325729 -64.068314 134.977921 0.718665 -0.166791 1.172332 34.889206 18.754002 17.636629 -26.322729 52.411179 -19.466658 -14.3956 29.410381 0.0 -8.774822 -2e-06 15.082733 -18.807026 7.172555 -0.609776 -1.795653 -3.889326 -4.807092 -11.046809 -2.937846 3e-06 -20.976015 0.0 -5.019972 -25.033552 -4.031881 5e-06 -4e-06 -0.0 -10.634535 -5.686969 -3.565584 10.573276 -17.922949 -3.113901 1e-06 -13.821206 3e-06 -0.501781 -31.181505 -4.027013 -13.43012 -59.441093 9.073409 -13.982715 -7.150197 -2.87504 13.772732 -8.401489 -3.218241 0.347731 -34.211555 0.771658 -0.963028 -17.73337 2.621019 -0.0 -2e-06 -1e-06 -17.346424 -20.095215 -4.201777 21.757563 -1.638373 3.866428 1e-06 -6.338824 1e-06 -1.697592 -22.591745 -6.194005 -0.0 -5e-06 -2e-06 112.742126 -66.986816 84.231445 23.155325 -69.712357 -49.188572 163.384949 2.233303 -0.590179 4.085031 18.536678 51.51178 22.182114 -20.375891 49.933311 -16.701817 -16.743532 28.47653 -1e-06 -12.690601 -0.0 16.351988 -17.073019 2.876174 -0.10592 -1.513856 -4.27588 -5.039042 -5.612871 -2.953556 4e-06 -11.020527 -1e-06 -6.111301 -15.895339 -3.840469 0.0 -1e-06 1e-06 -10.283373 -5.680288 -4.341836 11.028296 -11.302406 -2.372633 -1.384268 -14.238585 -6.320121 -0.625439 -26.924198 -3.8276 -3.706098 -49.415806 -4.493869 -13.708527 -7.363477 -3.720937 18.14115 -14.05274 -3.242675 6e-06 -18.78727 -0.0 -0.429711 -8.456047 2.555504 -1e-06 -1e-06 0.0 -15.923539 -20.094484 -5.473581 30.419214 -7.190825 1.735924 1e-06 -8.162922 -1e-06 -1.861905 -22.861473 -6.167943 -1e-06 -4e-06 -1e-06 125.895454 -26.377766 -26.804403 57.857597 -9.055916 11.637202 -58.915512 -3.591429 -4.901768 -9.010841 1.915173 2.941869 -1.000001 -1e-06 -0.0 -2.050266 -11.702913 79.867302 12.893823 11.570629 -54.472038 -49.442249 1.170304 -32.524078 -8.027097 0.645126 0.947705 -1.000005 1e-06 -0.0 
0.0 0.0 0.0 0.0 -0.0 0.0 5.612303 11.976254 119.238197 -51.007736 -82.236557 -97.671745 -4.814801 -4.269104 -2.778621 -12.71029 -2.089537 -3.972216 13.327366 -3.361704 -5.767029 32.396626 4.719285 1.577051 -1.861375 3.376906 -2.457871 -10.673337 -0.607585 -4.936873 5e-06 0.0 0.0 -0.353409 0.352737 0.063382 -0.253712 0.736117 0.048703 0.004458 -0.044276 0.086076 -36.039417 -82.482498 47.169262 40.115524 -37.266171 -63.847706 134.953232 0.788505 -0.11293 1.240205 35.086929 18.911711 17.636627 -26.322729 52.411182 -19.466665 -14.395598 29.410385 -2e-06 -8.77482 -4e-06 15.112992 -18.775045 7.138316 -0.609775 -1.795654 -3.889327 -4.807087 -11.046807 -2.93785 8e-06 -20.976013 -2e-06 -5.019967 -25.033548 -4.031878 7e-06 1e-06 -2e-06 -10.634533 -5.686968 -3.565588 10.573277 -17.922947 -3.113901 5e-06 -13.821205 1e-06 -0.501772 -31.181498 -4.027014 -13.372252 -59.445522 9.008708 -13.982712 -7.150196 -2.875042 13.772729 -8.401492 -3.21824 0.347736 -34.211544 0.771657 -0.963027 -17.733366 2.62102 -1e-06 -1e-06 -1e-06 -17.346413 -20.095211 -4.201783 21.757557 -1.638377 3.866426 2e-06 -6.338823 1e-06 -1.697586 -22.59174 -6.194005 0.0 -4e-06 -3e-06 113.041092 -66.958817 84.020058 23.614901 -69.732201 -49.626492 163.404892 2.187968 -0.570316 4.127825 18.557364 51.617538 22.182117 -20.3759 49.933319 -16.701817 -16.743534 28.476538 -2e-06 -12.690606 0.0 16.429459 -17.094994 2.85231 -0.10592 -1.513857 -4.275881 -5.039042 -5.612872 -2.953557 4e-06 -11.020527 -1e-06 -6.111301 -15.895334 -3.840471 0.0 -0.0 0.0 -10.283373 -5.680288 -4.341838 11.028296 -11.302406 -2.372633 -1.384269 -14.238585 -6.320122 -0.625442 -26.924198 -3.8276 -3.723124 -49.499454 -4.467067 -13.708527 -7.363477 -3.720938 18.141153 -14.052739 -3.242676 5e-06 -18.78727 1e-06 -0.429711 -8.456049 2.555503 -0.0 -0.0 0.0 -15.923539 -20.094484 -5.473584 30.419222 -7.190828 1.735925 2e-06 -8.162922 1e-06 -1.861906 -22.861469 -6.16794 -1e-06 -4e-06 -1e-06 125.969482 -26.3762 -26.884233 57.71344 -9.019897 11.65584 -58.871983 -3.585057 -4.811466 -9.0979 1.907845 2.922949 -0.999999 0.0 0.0 -1.984405 -11.768038 79.935295 12.72346 11.368011 -54.589928 -49.27655 1.165627 -32.650448 -8.041322 0.657811 0.959941 -1.000005 0.0 -0.0 
